<svg class="h-7 w-7 rounded-[30%]"  xmlns="http://www.w3.org/2000/svg" viewBox="0 0 200 200"><rect fill="#00f778" width="200" height="200"></rect><polygon fill="#171c2c" points="168.6 80.42 150.86 80.42 150.86 60.41 130.06 60.41 130.06 80.42 114.49 80.42 114.49 30.28 93.69 30.28 93.69 80.42 93.69 98.78 85.51 98.78 69.94 98.78 69.94 55.04 49.14 55.04 49.14 98.78 31.4 98.78 31.4 119.58 49.14 119.58 49.14 139.59 69.94 139.59 69.94 119.58 85.51 119.58 85.51 169.72 106.31 169.72 106.31 119.58 106.31 101.22 114.49 101.22 130.06 101.22 130.06 144.96 150.86 144.96 150.86 101.22 168.6 101.22 168.6 80.42"></polygon></svg>